<svg width="182" height="60" viewBox="0 0 182 60" fill="none" xmlns="http://www.w3.org/2000/svg">
<rect width="182" height="60" rx="12" fill="white"/>
<path d="M123.649 28.7967V32.2332H121.471V34.4868H123.649V42.1443C123.649 44.7591 124.845 45.805 127.854 45.805C128.382 45.805 128.886 45.7427 129.327 45.668V43.4392C128.949 43.4766 128.71 43.5015 128.294 43.5015C126.947 43.5015 126.356 42.8789 126.356 41.4595V34.4868H129.327V32.2332H126.356V28.7967H123.649Z" fill="#121212"/>
<path d="M136.992 45.9917C140.995 45.9917 143.45 43.3396 143.45 38.9444C143.45 34.574 140.983 31.9094 136.992 31.9094C132.988 31.9094 130.521 34.574 130.521 38.9444C130.521 43.3396 132.976 45.9917 136.992 45.9917ZM136.992 43.6135C134.637 43.6135 133.316 41.9077 133.316 38.9444C133.316 36.0059 134.637 34.2876 136.992 34.2876C139.333 34.2876 140.668 36.0059 140.668 38.9444C140.668 41.8953 139.333 43.6135 136.992 43.6135Z" fill="#121212"/>
<path d="M145.55 45.7302H148.257V37.7241C148.257 35.8191 149.705 34.5366 151.757 34.5366C152.236 34.5366 153.041 34.6238 153.268 34.6985V32.0589C152.978 31.9842 152.462 31.9468 152.059 31.9468C150.272 31.9468 148.748 32.918 148.358 34.2503H148.157V32.1709H145.55V45.7302Z" fill="#121212"/>
<path d="M159.989 34.188C161.99 34.188 163.3 35.5701 163.363 37.6992H156.438C156.589 35.5825 157.987 34.188 159.989 34.188ZM163.35 42.0696C162.846 43.128 161.726 43.7132 160.089 43.7132C157.924 43.7132 156.527 42.2066 156.438 39.8284V39.679H166.12V38.7451C166.12 34.4868 163.816 31.9094 160.001 31.9094C156.136 31.9094 153.681 34.6612 153.681 38.9942C153.681 43.3272 156.086 45.9917 160.014 45.9917C163.149 45.9917 165.339 44.4976 165.956 42.0696H163.35Z" fill="#121212"/>
<path d="M105.898 40.723C106.107 44.0526 108.913 46.1819 113.088 46.1819C117.551 46.1819 120.343 43.9493 120.343 40.3875C120.343 37.587 118.751 36.0384 114.889 35.1479L112.814 34.6446C110.361 34.0768 109.369 33.3154 109.369 31.9861C109.369 30.3084 110.909 29.2115 113.219 29.2115C115.411 29.2115 116.924 30.2826 117.198 31.999H120.043C119.873 28.8631 117.081 26.6562 113.258 26.6562C109.147 26.6562 106.407 28.8631 106.407 32.1797C106.407 34.9156 107.96 36.5417 111.366 37.3289L113.793 37.9096C116.285 38.4904 117.381 39.3421 117.381 40.7617C117.381 42.4136 115.659 43.6138 113.31 43.6138C110.792 43.6138 109.043 42.491 108.795 40.723H105.898Z" fill="#121212"/>
<path d="M77.8592 31.9468C75.996 31.9468 74.3845 32.8682 73.5536 34.4121H73.3522V32.1709H70.7461V50.2376H73.4529V43.6758H73.6669C74.3845 45.1077 75.933 45.9544 77.8844 45.9544C81.3465 45.9544 83.5497 43.2525 83.5497 38.9444C83.5497 34.6363 81.3465 31.9468 77.8592 31.9468ZM77.0912 43.5513C74.8251 43.5513 73.4025 41.7832 73.4025 38.9568C73.4025 36.1179 74.8251 34.3499 77.1038 34.3499C79.3951 34.3499 80.7674 36.0806 80.7674 38.9444C80.7674 41.8206 79.3951 43.5513 77.0912 43.5513Z" fill="#121212"/>
<path d="M93.021 31.9468C91.1578 31.9468 89.5463 32.8682 88.7154 34.4121H88.514V32.1709H85.9079V50.2376H88.6147V43.6758H88.8287C89.5463 45.1077 91.0948 45.9544 93.0462 45.9544C96.5083 45.9544 98.7115 43.2525 98.7115 38.9444C98.7115 34.6363 96.5083 31.9468 93.021 31.9468ZM92.2531 43.5513C89.9869 43.5513 88.5643 41.7832 88.5643 38.9568C88.5643 36.1179 89.9869 34.3499 92.2656 34.3499C94.5569 34.3499 95.9292 36.0806 95.9292 38.9444C95.9292 41.8206 94.5569 43.5513 92.2531 43.5513Z" fill="#121212"/>
<path d="M65.8898 45.7302H68.9953L62.197 27.1079H59.0523L52.2539 45.7302H55.2551L56.9906 40.7875H64.1673L65.8898 45.7302ZM60.4746 30.4891H60.6964L63.4236 38.3613H57.7343L60.4746 30.4891Z" fill="#121212"/>
<path d="M54.0703 13.067V22.0505H57.3499C60.0566 22.0505 61.624 20.4008 61.624 17.5308C61.624 14.7043 60.044 13.067 57.3499 13.067H54.0703ZM55.4803 14.337H57.1925C59.0746 14.337 60.1888 15.5199 60.1888 17.5494C60.1888 19.6101 59.0935 20.7805 57.1925 20.7805H55.4803V14.337Z" fill="#121212"/>
<path d="M66.4244 22.1813C68.4261 22.1813 69.6536 20.8552 69.6536 18.6576C69.6536 16.4724 68.4198 15.1401 66.4244 15.1401C64.4227 15.1401 63.1889 16.4724 63.1889 18.6576C63.1889 20.8552 64.4164 22.1813 66.4244 22.1813ZM66.4244 20.9922C65.2473 20.9922 64.5863 20.1393 64.5863 18.6576C64.5863 17.1884 65.2473 16.3292 66.4244 16.3292C67.5952 16.3292 68.2625 17.1884 68.2625 18.6576C68.2625 20.1331 67.5952 20.9922 66.4244 20.9922Z" fill="#121212"/>
<path d="M80.1067 15.2709H78.7533L77.5321 20.4443H77.4251L76.0151 15.2709H74.7184L73.3084 20.4443H73.2076L71.9802 15.2709H70.6079L72.4963 22.0505H73.8875L75.2975 17.0576H75.4045L76.8208 22.0505H78.2246L80.1067 15.2709Z" fill="#121212"/>
<path d="M81.6653 22.0505H83.0186V18.0848C83.0186 17.0265 83.6544 16.3666 84.6553 16.3666C85.6562 16.3666 86.1346 16.9082 86.1346 17.9977V22.0505H87.4879V17.6615C87.4879 16.0491 86.6444 15.1401 85.1148 15.1401C84.0825 15.1401 83.4026 15.5946 83.069 16.3479H82.9683V15.2709H81.6653V22.0505Z" fill="#121212"/>
<path d="M89.6193 22.0505H90.9727V12.625H89.6193V22.0505Z" fill="#121212"/>
<path d="M96.0626 22.1813C98.0644 22.1813 99.2919 20.8552 99.2919 18.6576C99.2919 16.4724 98.0581 15.1401 96.0626 15.1401C94.0609 15.1401 92.8271 16.4724 92.8271 18.6576C92.8271 20.8552 94.0546 22.1813 96.0626 22.1813ZM96.0626 20.9922C94.8855 20.9922 94.2246 20.1393 94.2246 18.6576C94.2246 17.1884 94.8855 16.3292 96.0626 16.3292C97.2335 16.3292 97.9007 17.1884 97.9007 18.6576C97.9007 20.1331 97.2335 20.9922 96.0626 20.9922Z" fill="#121212"/>
<path d="M103.324 21.0358C102.588 21.0358 102.053 20.6809 102.053 20.0708C102.053 19.4731 102.481 19.1556 103.425 19.0934L105.099 18.9875V19.5541C105.099 20.3945 104.344 21.0358 103.324 21.0358ZM102.978 22.1626C103.878 22.1626 104.627 21.7766 105.036 21.098H105.143V22.0505H106.446V17.4187C106.446 15.9868 105.477 15.1401 103.759 15.1401C102.204 15.1401 101.096 15.8872 100.957 17.0514H102.267C102.418 16.572 102.94 16.2981 103.696 16.2981C104.621 16.2981 105.099 16.7028 105.099 17.4187V18.0039L103.242 18.1097C101.612 18.2094 100.693 18.9128 100.693 20.1331C100.693 21.3719 101.656 22.1626 102.978 22.1626Z" fill="#121212"/>
<path d="M111.039 22.1626C111.983 22.1626 112.783 21.7206 113.192 20.9797H113.299V22.0505H114.596V12.625H113.242V16.3479H113.142C112.77 15.6008 111.977 15.1588 111.039 15.1588C109.308 15.1588 108.194 16.516 108.194 18.6576C108.194 20.8054 109.295 22.1626 111.039 22.1626ZM111.423 16.3604C112.556 16.3604 113.267 17.2506 113.267 18.6638C113.267 20.0833 112.562 20.9611 111.423 20.9611C110.277 20.9611 109.591 20.0957 109.591 18.6576C109.591 17.2319 110.284 16.3604 111.423 16.3604Z" fill="#121212"/>
<path d="M123.372 22.1813C125.374 22.1813 126.601 20.8552 126.601 18.6576C126.601 16.4724 125.367 15.1401 123.372 15.1401C121.37 15.1401 120.136 16.4724 120.136 18.6576C120.136 20.8552 121.364 22.1813 123.372 22.1813ZM123.372 20.9922C122.195 20.9922 121.534 20.1393 121.534 18.6576C121.534 17.1884 122.195 16.3292 123.372 16.3292C124.543 16.3292 125.21 17.1884 125.21 18.6576C125.21 20.1331 124.543 20.9922 123.372 20.9922Z" fill="#121212"/>
<path d="M128.393 22.0505H129.746V18.0848C129.746 17.0265 130.382 16.3666 131.383 16.3666C132.383 16.3666 132.862 16.9082 132.862 17.9977V22.0505H134.215V17.6615C134.215 16.0491 133.372 15.1401 131.842 15.1401C130.81 15.1401 130.13 15.5946 129.796 16.3479H129.696V15.2709H128.393V22.0505Z" fill="#121212"/>
<path d="M140.448 13.5837V15.302H139.359V16.4288H140.448V20.2576C140.448 21.5649 141.046 22.0879 142.551 22.0879C142.815 22.0879 143.067 22.0568 143.287 22.0194V20.905C143.098 20.9237 142.979 20.9362 142.771 20.9362C142.097 20.9362 141.802 20.6249 141.802 19.9152V16.4288H143.287V15.302H141.802V13.5837H140.448Z" fill="#121212"/>
<path d="M145.104 22.0505H146.457V18.0911C146.457 17.0638 147.074 16.3728 148.182 16.3728C149.139 16.3728 149.649 16.9207 149.649 18.0039V22.0505H151.002V17.674C151.002 16.0615 150.102 15.1464 148.642 15.1464C147.609 15.1464 146.885 15.6008 146.552 16.3604H146.445V12.625H145.104V22.0505Z" fill="#121212"/>
<path d="M155.884 16.2794C156.885 16.2794 157.54 16.9705 157.571 18.035H154.109C154.185 16.9767 154.883 16.2794 155.884 16.2794ZM157.565 20.2202C157.313 20.7494 156.753 21.042 155.935 21.042C154.852 21.042 154.153 20.2887 154.109 19.0996V19.0249H158.95V18.558C158.95 16.4288 157.798 15.1401 155.891 15.1401C153.958 15.1401 152.731 16.516 152.731 18.6825C152.731 20.849 153.933 22.1813 155.897 22.1813C157.464 22.1813 158.56 21.4342 158.868 20.2202H157.565Z" fill="#121212"/>
<path d="M37.5676 30.4487C37.6004 27.9272 38.9696 25.5413 41.1417 24.2206C39.7714 22.2851 37.4763 21.0579 35.0884 20.9841C32.5416 20.7197 30.0725 22.4913 28.7747 22.4913C27.4518 22.4913 25.4536 21.0103 23.3018 21.0541C20.4971 21.1437 17.8824 22.7208 16.5179 25.1459C13.5847 30.1685 15.7726 37.5501 18.5824 41.61C19.9882 43.598 21.6312 45.8187 23.781 45.74C25.8847 45.6537 26.6704 44.4132 29.2097 44.4132C31.7255 44.4132 32.4626 45.74 34.6561 45.6899C36.9134 45.6537 38.3357 43.693 39.6922 41.6862C40.7022 40.2696 41.4795 38.7041 41.9951 37.0474C39.3423 35.9377 37.5707 33.2974 37.5676 30.4487Z" fill="#121212"/>
<path d="M33.4246 18.3141C34.6554 16.8527 35.2618 14.9745 35.1149 13.0781C33.2345 13.2735 31.4975 14.1623 30.2501 15.5675C29.0303 16.9405 28.3955 18.7858 28.5155 20.6096C30.3966 20.6288 32.2458 19.764 33.4246 18.3141Z" fill="#121212"/>
</svg>
