<svg width="16" height="16" viewBox="0 0 16 16" fill="none" xmlns="http://www.w3.org/2000/svg">
<path d="M7.00028 8.00181H3.33362M3.27718 8.19615L1.72057 12.8459C1.59828 13.2112 1.53713 13.3939 1.58101 13.5064C1.61912 13.604 1.70096 13.6781 1.80195 13.7063C1.91824 13.7387 2.09388 13.6597 2.44517 13.5016L13.5862 8.48817C13.929 8.33388 14.1005 8.25673 14.1535 8.14955C14.1995 8.05644 14.1995 7.94719 14.1535 7.85408C14.1005 7.7469 13.929 7.66975 13.5862 7.51546L2.44129 2.5003C2.09106 2.34269 1.91595 2.26389 1.79977 2.29622C1.69888 2.32429 1.61704 2.39815 1.57881 2.49564C1.53478 2.60791 1.59527 2.79016 1.71625 3.15466L3.27761 7.85883C3.29839 7.92144 3.30878 7.95274 3.31288 7.98475C3.31652 8.01316 3.31649 8.04192 3.31277 8.07032C3.30859 8.10232 3.29812 8.1336 3.27718 8.19615Z" stroke="white" stroke-width="1.33333" stroke-linecap="round" stroke-linejoin="round"/>
</svg>
