<svg width="17" height="14" viewBox="0 0 17 14" fill="none" xmlns="http://www.w3.org/2000/svg">
<path d="M17 7.33346C17 6.75846 16.5333 6.29179 15.9583 6.29179H6.10333L7.9525 2.13179C8.15583 1.67262 8.00333 1.13429 7.59 0.850123C7.41084 0.726789 7.205 0.66679 7 0.66679C6.73167 0.66679 6.46417 0.770123 6.26334 0.971789L0.638335 6.59679C0.231669 7.00429 0.231669 7.66346 0.638335 8.07012L6.26334 13.6951C6.61834 14.0501 7.17584 14.101 7.59 13.8168C8.00417 13.5326 8.15583 12.9943 7.9525 12.5351L6.10333 8.37512H15.9583C16.5333 8.37512 17 7.90846 17 7.33346Z" fill="black"/>
</svg>
