<svg width="46" height="46" viewBox="0 0 46 46" fill="none" xmlns="http://www.w3.org/2000/svg">
<g filter="url(#filter0_d_12599_5069)">
<rect x="1" y="1" width="40" height="40" rx="20" fill="black" fill-opacity="0.4"/>
<rect x="1.005" y="1.005" width="39.99" height="39.99" rx="19.995" stroke="white" stroke-width="0.01"/>
<path d="M20.5248 11.2949C20.5687 11.2064 20.6364 11.1318 20.7203 11.0797C20.8042 11.0276 20.9011 11 20.9998 11C21.0986 11 21.1955 11.0276 21.2794 11.0797C21.3633 11.1318 21.431 11.2064 21.4748 11.2949L23.7848 15.9739C23.937 16.2819 24.1617 16.5483 24.4395 16.7503C24.7173 16.9524 25.04 17.084 25.3798 17.1339L30.5458 17.8899C30.6437 17.9041 30.7357 17.9454 30.8113 18.0091C30.887 18.0728 30.9433 18.1564 30.9739 18.2505C31.0045 18.3446 31.0081 18.4453 30.9844 18.5413C30.9607 18.6374 30.9107 18.7248 30.8398 18.7939L27.1038 22.4319C26.8575 22.672 26.6731 22.9684 26.5667 23.2955C26.4602 23.6227 26.4349 23.9708 26.4928 24.3099L27.3748 29.4499C27.3921 29.5477 27.3816 29.6485 27.3443 29.7406C27.3071 29.8327 27.2448 29.9125 27.1644 29.9709C27.084 30.0293 26.9888 30.0639 26.8897 30.0708C26.7906 30.0777 26.6915 30.0566 26.6038 30.0099L21.9858 27.5819C21.6816 27.4221 21.343 27.3386 20.9993 27.3386C20.6557 27.3386 20.3171 27.4221 20.0128 27.5819L15.3958 30.0099C15.3082 30.0563 15.2092 30.0772 15.1103 30.0701C15.0114 30.0631 14.9164 30.0285 14.8361 29.9701C14.7559 29.9118 14.6937 29.8321 14.6565 29.7401C14.6193 29.6482 14.6087 29.5476 14.6258 29.4499L15.5068 24.3109C15.565 23.9716 15.5398 23.6233 15.4334 23.2959C15.3269 22.9686 15.1425 22.672 14.8958 22.4319L11.1598 18.7949C11.0884 18.7259 11.0378 18.6383 11.0138 18.542C10.9898 18.4456 10.9933 18.3445 11.0239 18.2501C11.0546 18.1557 11.1111 18.0717 11.1871 18.0079C11.2631 17.944 11.3556 17.9028 11.4538 17.8889L16.6188 17.1339C16.9591 17.0844 17.2822 16.953 17.5604 16.7509C17.8386 16.5488 18.0636 16.2822 18.2158 15.9739L20.5248 11.2949Z" stroke="white" stroke-width="1.5" stroke-linecap="round" stroke-linejoin="round"/>
</g>
<defs>
<filter id="filter0_d_12599_5069" x="0.35" y="0.35" width="45.2" height="45.2" filterUnits="userSpaceOnUse" color-interpolation-filters="sRGB">
<feFlood flood-opacity="0" result="BackgroundImageFix"/>
<feColorMatrix in="SourceAlpha" type="matrix" values="0 0 0 0 0 0 0 0 0 0 0 0 0 0 0 0 0 0 127 0" result="hardAlpha"/>
<feOffset dx="1.95" dy="1.95"/>
<feGaussianBlur stdDeviation="1.3"/>
<feColorMatrix type="matrix" values="0 0 0 0 0 0 0 0 0 0 0 0 0 0 0 0 0 0 0.15 0"/>
<feBlend mode="normal" in2="BackgroundImageFix" result="effect1_dropShadow_12599_5069"/>
<feBlend mode="normal" in="SourceGraphic" in2="effect1_dropShadow_12599_5069" result="shape"/>
</filter>
</defs>
</svg>
