<svg width="15" height="15" viewBox="0 0 15 15" fill="none" xmlns="http://www.w3.org/2000/svg">
<path d="M6.99961 0.0703125C6.86546 0.0707313 6.7364 0.121686 6.63815 0.213021C6.63429 0.216093 6.63047 0.219218 6.62669 0.222396L0.808984 4.98073C0.802265 4.98578 0.795666 4.99099 0.789193 4.99635L0.769401 5.01302V5.01406C0.715909 5.06389 0.673234 5.12419 0.644026 5.19121C0.614817 5.25823 0.599698 5.33054 0.599609 5.40365C0.599609 5.54509 0.6558 5.68075 0.755819 5.78077C0.855838 5.88079 0.991494 5.93698 1.13294 5.93698H1.66628V11.8036C1.66628 12.393 2.14361 12.8703 2.73294 12.8703H6.74544C6.56784 12.369 6.46628 11.8324 6.46628 11.2703C6.46628 8.61911 8.61508 6.47031 11.2663 6.47031C11.6332 6.47031 11.9895 6.51483 12.3329 6.59323V5.93698H12.8663C13.0077 5.93698 13.1434 5.88079 13.2434 5.78077C13.3434 5.68075 13.3996 5.54509 13.3996 5.40365C13.3995 5.33054 13.3844 5.25823 13.3552 5.19121C13.326 5.12419 13.2833 5.06389 13.2298 5.01406C13.2298 5.01371 13.2298 5.01337 13.2298 5.01302L13.2215 5.00677C13.2098 4.99617 13.1976 4.98609 13.185 4.97656L12.3329 4.27969V2.20365C12.3329 1.90925 12.094 1.67031 11.7996 1.67031H11.2663C10.9719 1.67031 10.7329 1.90925 10.7329 2.20365V2.97135L7.36836 0.219271L7.36107 0.213021C7.26282 0.121686 7.13376 0.0707313 6.99961 0.0703125ZM11.2663 7.53698C9.20441 7.53698 7.53294 9.20845 7.53294 11.2703C7.53294 13.3322 9.20441 15.0036 11.2663 15.0036C13.3281 15.0036 14.9996 13.3322 14.9996 11.2703C14.9996 9.20845 13.3281 7.53698 11.2663 7.53698ZM10.7329 8.60365H11.7996V9.36094C12.3799 9.51507 12.7551 9.92011 12.7673 10.462H11.885C11.8642 10.1964 11.6117 10.0109 11.2757 10.0109C10.9397 10.0109 10.7184 10.1702 10.7184 10.4203C10.7184 10.6262 10.8846 10.745 11.2809 10.8234L11.7652 10.9182C12.5076 11.0617 12.8402 11.3964 12.8402 11.9932C12.8402 12.6183 12.454 13.0419 11.7996 13.1891V13.937H10.7329V13.1932C10.094 13.0551 9.70512 12.6578 9.69232 12.0797H10.6038C10.6272 12.3533 10.9008 12.5276 11.2965 12.5276C11.6533 12.5276 11.8975 12.3553 11.8975 12.1078C11.8975 11.8993 11.7331 11.7874 11.3038 11.7016L10.809 11.6026C10.1215 11.4725 9.76732 11.0972 9.76732 10.5057C9.76732 9.9276 10.1356 9.51037 10.7329 9.35677V8.60365Z" fill="white"/>
</svg>
