<svg width="18" height="18" viewBox="0 0 18 18" fill="none" xmlns="http://www.w3.org/2000/svg">
<path d="M12.7354 10.734C12.4918 10.5912 12.1924 10.5942 11.95 10.7382L10.7224 11.4696C10.4476 11.6334 10.1044 11.6142 9.8524 11.4174C9.4168 11.0772 8.7154 10.5048 8.1052 9.89462C7.495 9.28442 6.9226 8.58302 6.5824 8.14742C6.3856 7.89542 6.3664 7.55222 6.5302 7.27742L7.2616 6.04982C7.4062 5.80742 7.4074 5.50562 7.2646 5.26202L5.4634 2.18522C5.28879 1.88762 4.942 1.74122 4.6066 1.82342C4.2808 1.90262 3.8578 2.09582 3.4144 2.53982C2.026 3.92822 1.2886 6.27002 6.5098 11.4912C11.731 16.7124 14.0722 15.9756 15.4612 14.5866C15.9058 14.142 16.0984 13.7184 16.1782 13.392C16.2592 13.0572 16.1152 12.7128 15.8182 12.5388C15.0766 12.105 13.477 11.1684 12.7354 10.734Z" fill="#033487"/>
</svg>
