<svg width="20" height="20" viewBox="0 0 20 20" fill="none" xmlns="http://www.w3.org/2000/svg">
<path d="M3.75 2.07291C3.75 1.15244 4.49619 0.40625 5.41667 0.40625H14.5833C15.5038 0.40625 16.25 1.15244 16.25 2.07292V17.9063C16.25 18.8267 15.5038 19.5729 14.5833 19.5729H5.41667C4.49619 19.5729 3.75 18.8267 3.75 17.9062V2.07291Z" fill="white"/>
<path d="M5 2.48958C5 2.02935 5.3731 1.65625 5.83333 1.65625H14.1667C14.6269 1.65625 15 2.02935 15 2.48958V15.4062C15 15.8665 14.6269 16.2396 14.1667 16.2396H5.83333C5.3731 16.2396 5 15.8665 5 15.4062V2.48958Z" fill="#033487"/>
<path d="M14.0977 0H5.88672C4.51172 0 3.39844 1.11328 3.39844 2.48828V17.5117C3.39844 18.8867 4.51172 20 5.88672 20H14.0977C15.4727 20 16.5859 18.8867 16.5859 17.5117V2.48828C16.5859 1.11328 15.4727 0 14.0977 0ZM16.0156 17.5117C16.0156 18.5703 15.1563 19.4258 14.0977 19.4297H5.88672C4.82812 19.4297 3.97266 18.5703 3.96875 17.5117V2.48828C3.96875 1.42969 4.82812 0.574219 5.88672 0.570312H14.0977C15.1563 0.570312 16.0117 1.42969 16.0156 2.48828V17.5117Z" fill="white"/>
<path d="M10.8691 17.0312H9.10742C8.60352 17.0312 8.19336 17.4414 8.19336 17.9453C8.19336 18.4492 8.60352 18.8594 9.10742 18.8594H10.8691C11.373 18.8594 11.7832 18.4492 11.7832 17.9453C11.7832 17.4414 11.373 17.0312 10.8691 17.0312ZM10.8691 18.293H9.10742C8.91602 18.293 8.76367 18.1367 8.76367 17.9492C8.76367 17.7578 8.91602 17.6055 9.10742 17.6055H10.8691C11.0605 17.6055 11.2129 17.7617 11.2129 17.9492C11.2129 18.1367 11.0566 18.293 10.8691 18.293Z" fill="#033487"/>
<path d="M12.1406 9.85547C11.8633 9.85547 11.5977 9.96484 11.4023 10.1602L11.0391 10.5234V4.54688C11.0391 3.96875 10.5703 3.50391 9.99609 3.5C9.41797 3.5 8.95313 3.96875 8.94922 4.54297V10.5469L8.58594 10.1836C8.17188 9.78125 7.50781 9.79297 7.10938 10.207C6.71875 10.6133 6.71875 11.2539 7.10938 11.6602L9.24609 13.7969C9.65625 14.2031 10.3164 14.2031 10.7227 13.7969L12.8828 11.6367C13.2891 11.2305 13.2891 10.5664 12.8828 10.1602C12.6836 9.96875 12.418 9.85547 12.1406 9.85547ZM12.4766 11.2344L10.3125 13.3984C10.1289 13.582 9.82813 13.582 9.64453 13.3984L7.50781 11.2617C7.32422 11.0781 7.32422 10.7773 7.50781 10.5938C7.69141 10.4102 7.99219 10.4102 8.17578 10.5938L9.02734 11.4453C9.14063 11.5586 9.32031 11.5586 9.42969 11.4453C9.48438 11.3906 9.51172 11.3203 9.51172 11.2422V4.54688C9.50391 4.28516 9.71094 4.06641 9.97266 4.05859C10.2344 4.05078 10.4531 4.25781 10.4609 4.51953V4.54688V11.2148C10.4609 11.3711 10.5898 11.5 10.7461 11.5C10.8203 11.5 10.8945 11.4688 10.9492 11.4141L11.8008 10.5625C11.9883 10.3828 12.2891 10.3906 12.4688 10.5781C12.6484 10.7656 12.6484 11.0547 12.4766 11.2344Z" fill="white"/>
<path d="M10.0802 10.7703C9.20863 10.7291 8.78424 10.2727 7.91262 10.2313C7.70048 10.2212 7.58324 10.2089 7.37283 10.2313C5.72942 10.4062 10.0802 14 10.0802 14C10.0802 14 11.6822 12.5403 12.2458 11.846C12.7248 11.2561 13.3315 10.7696 12.7877 10.2313C12.0234 9.47462 11.158 10.8213 10.0802 10.7703Z" fill="white"/>
<rect x="9.00391" y="4" width="2" height="8" rx="1" fill="white"/>
</svg>
