<svg width="17" height="14" viewBox="0 0 17 14" fill="none" xmlns="http://www.w3.org/2000/svg">
<path d="M0 6.66654C0 7.24154 0.466667 7.70821 1.04167 7.70821H10.8967L9.0475 11.8682C8.84417 12.3274 8.99667 12.8657 9.41 13.1499C9.58916 13.2732 9.795 13.3332 10 13.3332C10.2683 13.3332 10.5358 13.2299 10.7367 13.0282L16.3617 7.40321C16.7683 6.99571 16.7683 6.33654 16.3617 5.92988L10.7367 0.304876C10.3817 -0.0501239 9.82416 -0.100958 9.41 0.183209C8.99583 0.467376 8.84417 1.00571 9.0475 1.46488L10.8967 5.62488H1.04167C0.466667 5.62488 0 6.09154 0 6.66654Z" fill="black"/>
</svg>
