<svg width="182" height="60" viewBox="0 0 182 60" fill="none" xmlns="http://www.w3.org/2000/svg">
<rect width="182" height="60" rx="12" fill="white"/>
<path d="M144.164 45.0029H146.679V26.2505H144.164V45.0029ZM166.822 33.0059L163.938 41.1358H163.852L160.859 33.0059H158.149L162.639 44.3684L160.079 50.6895H162.702L169.62 33.0059H166.822ZM152.555 42.8731C151.732 42.8731 150.582 42.4142 150.582 41.2805C150.582 39.8332 152.014 39.2783 153.249 39.2783C154.354 39.2783 154.876 39.5432 155.548 39.9053C155.352 41.6426 154.008 42.8731 152.555 42.8731ZM152.859 32.5957C151.038 32.5957 149.152 33.4886 148.371 35.4668L150.604 36.5039C151.081 35.4668 151.97 35.1293 152.903 35.1293C154.203 35.1293 155.526 35.9971 155.548 37.5416V37.7344C155.092 37.4449 154.116 37.0108 152.924 37.0108C150.516 37.0108 148.067 38.482 148.067 41.2324C148.067 43.7414 150.04 45.358 152.251 45.358C153.942 45.358 154.876 44.5136 155.46 43.5241H155.548V44.9725H157.977V37.7824C157.977 34.4531 155.742 32.5957 152.859 32.5957ZM137.313 35.2886H133.735V28.861H137.313C139.193 28.861 140.261 30.593 140.261 32.0747C140.261 33.5279 139.193 35.2886 137.313 35.2886ZM137.248 26.2505H131.22V45.0029H133.735V37.8985H137.248C140.036 37.8985 142.777 35.6531 142.777 32.0747C142.777 28.4971 140.036 26.2505 137.248 26.2505ZM104.378 42.8765C102.64 42.8765 101.186 41.257 101.186 39.0346C101.186 36.7864 102.64 35.1439 104.378 35.1439C106.094 35.1439 107.44 36.7864 107.44 39.0346C107.44 41.257 106.094 42.8765 104.378 42.8765ZM107.267 34.0559H107.18C106.615 33.307 105.529 32.6303 104.161 32.6303C101.294 32.6303 98.6658 35.434 98.6658 39.0346C98.6658 42.6106 101.294 45.3896 104.161 45.3896C105.529 45.3896 106.615 44.7128 107.18 43.94H107.267V44.8576C107.267 47.2992 106.094 48.6035 104.204 48.6035C102.663 48.6035 101.707 47.3713 101.316 46.3324L99.1225 47.3473C99.7518 49.0383 101.424 51.1172 104.204 51.1172C107.159 51.1172 109.656 49.1836 109.656 44.4709V33.017H107.267V34.0559ZM111.394 45.0029H113.913V26.2505H111.394V45.0029ZM117.627 38.8166C117.562 36.3515 119.344 35.0953 120.624 35.0953C121.624 35.0953 122.47 35.6513 122.753 36.4483L117.627 38.8166ZM125.446 36.6896C124.968 35.2646 123.513 32.6303 120.537 32.6303C117.583 32.6303 115.129 35.216 115.129 39.01C115.129 42.5866 117.562 45.3896 120.819 45.3896C123.447 45.3896 124.968 43.6019 125.598 42.5624L123.643 41.1122C122.992 42.1757 122.101 42.8765 120.819 42.8765C119.538 42.8765 118.626 42.2239 118.04 40.943L125.706 37.415L125.446 36.6896ZM64.364 34.5878V37.2943H70.1846C70.0108 38.8166 69.5547 39.9281 68.8596 40.7015C68.0123 41.6437 66.6873 42.6832 64.364 42.6832C60.7802 42.6832 57.9786 39.4693 57.9786 35.482C57.9786 31.4947 60.7802 28.2803 64.364 28.2803C66.2971 28.2803 67.7084 29.1263 68.7511 30.2138L70.4674 28.3043C69.0118 26.758 67.0791 25.5739 64.364 25.5739C59.4547 25.5739 55.3281 30.0205 55.3281 35.482C55.3281 40.943 59.4547 45.3896 64.364 45.3896C67.0133 45.3896 69.0118 44.4229 70.5754 42.6106C72.1827 40.8223 72.6824 38.3092 72.6824 36.2789C72.6824 35.6513 72.6386 35.0713 72.5518 34.5878H64.364ZM79.2999 42.8765C77.5621 42.8765 76.0633 41.2816 76.0633 39.01C76.0633 36.7142 77.5621 35.1439 79.2999 35.1439C81.0372 35.1439 82.5359 36.7142 82.5359 39.01C82.5359 41.2816 81.0372 42.8765 79.2999 42.8765ZM79.2999 32.6303C76.128 32.6303 73.5439 35.3126 73.5439 39.01C73.5439 42.6832 76.128 45.3896 79.2999 45.3896C82.4707 45.3896 85.0553 42.6832 85.0553 39.01C85.0553 35.3126 82.4707 32.6303 79.2999 32.6303ZM91.855 42.8765C90.1183 42.8765 88.619 41.2816 88.619 39.01C88.619 36.7142 90.1183 35.1439 91.855 35.1439C93.5929 35.1439 95.0911 36.7142 95.0911 39.01C95.0911 41.2816 93.5929 42.8765 91.855 42.8765ZM91.855 32.6303C88.6843 32.6303 86.1001 35.3126 86.1001 39.01C86.1001 42.6832 88.6843 45.3896 91.855 45.3896C95.0269 45.3896 97.611 42.6832 97.611 39.01C97.611 35.3126 95.0269 32.6303 91.855 32.6303Z" fill="#121212"/>
<path d="M59.9612 19.8516C58.7525 19.8516 57.7129 19.3784 56.8747 18.4459C56.0361 17.5128 55.6113 16.3445 55.6113 14.9859C55.6113 13.6274 56.0363 12.4611 56.8747 11.526C57.7129 10.5933 58.7526 10.1203 59.9612 10.1203C60.577 10.1203 61.1517 10.2386 61.7009 10.485C62.2503 10.7315 62.6998 11.0736 63.0538 11.5213L63.1373 11.627L62.1943 12.6759L62.1001 12.547C61.8654 12.226 61.5668 11.9767 61.1885 11.7955C60.8116 11.6147 60.3987 11.5312 59.9612 11.5312C59.1099 11.5312 58.4035 11.8529 57.8137 12.5068C57.8135 12.507 57.8133 12.507 57.8131 12.5071C57.2367 13.1742 56.9468 13.9865 56.9468 14.9859C56.9468 15.9862 57.237 16.7986 57.8142 17.4659C58.404 18.1196 59.1103 18.443 59.9612 18.443C60.7405 18.443 61.385 18.2009 61.8918 17.7217H61.8921C62.3638 17.2757 62.6469 16.673 62.747 15.9047H59.8264V14.5219H64.0093L64.0272 14.6484C64.0615 14.8915 64.0857 15.1262 64.0857 15.3516C64.0857 16.6418 63.7322 17.6951 63.0385 18.4699C62.2555 19.3935 61.2257 19.8516 59.9612 19.8516L59.9612 19.8516ZM96.2827 19.8516C95.0722 19.8516 94.0447 19.3781 93.2173 18.4459C93.2172 18.4458 93.2172 18.4457 93.217 18.4456C93.2169 18.4455 93.2169 18.4454 93.2167 18.4453C92.3882 17.5231 91.9771 16.3545 91.9771 14.9859C91.9771 13.6173 92.3882 12.4487 93.2167 11.5265C93.2168 11.5264 93.2169 11.5264 93.217 11.5262L93.2173 11.5259C94.0448 10.5935 95.0722 10.1203 96.2827 10.1203C97.4909 10.1203 98.5187 10.5937 99.3461 11.54C100.175 12.462 100.586 13.6284 100.586 14.9859C100.586 16.3545 100.175 17.5231 99.3466 18.4453L99.3464 18.4456C98.5184 19.3785 97.481 19.8515 96.2827 19.8515L96.2827 19.8516ZM65.2827 19.65V10.3219H65.4175H70.2898V11.7328H66.595V14.2945H69.9275V15.6773H66.595V18.2414H70.2898V19.65H65.2827ZM73.3542 19.65V11.7328H71.0876V10.3219H76.9331V11.7328H76.7983H74.6666V19.65H73.3542ZM80.669 19.65V10.3219H81.9813V10.4719V19.65H80.669ZM85.2848 19.65V11.7328H83.0182V10.3219H88.8637V11.7328H88.7289H86.5971V19.65H85.2848ZM101.751 19.65V10.3219H103.231L106.997 17.0303L106.965 15.7567V10.3219H108.277V19.65H106.978L103.031 12.6026L103.064 13.8753V13.8773V19.65H101.751ZM96.2827 18.443C97.1341 18.443 97.829 18.1199 98.3955 17.4671L98.3964 17.4659L98.3972 17.465C98.9718 16.8255 99.2529 16.0023 99.2529 14.9859C99.2529 13.9719 98.9716 13.1459 98.3972 12.5068L98.3964 12.5059L98.3955 12.505C97.8291 11.8523 97.1343 11.5311 96.2827 11.5311C95.4298 11.5311 94.735 11.8517 94.1578 12.5044L94.1573 12.505C93.5933 13.1597 93.3126 13.9722 93.3126 14.9858C93.3126 16.002 93.5932 16.8119 94.1573 17.4667L94.1578 17.4673C94.7351 18.1201 95.43 18.4429 96.2827 18.4429V18.443Z" fill="#121212"/>
<path d="M27.9273 29.1334L13.5742 46.0834C13.5748 46.0869 13.5758 46.0898 13.5764 46.0934C14.0165 47.9338 15.5274 49.2891 17.3206 49.2891C18.0374 49.2891 18.7104 49.0734 19.2875 48.6949L19.3334 48.665L35.4896 38.2922L27.9273 29.1334Z" fill="#EA4335"/>
<path d="M42.4466 26.2457L42.4329 26.2352L35.4578 21.7363L27.5996 29.5165L35.4852 38.2891L42.4234 33.8348C43.6399 33.1042 44.4656 31.6774 44.4656 30.032C44.4656 28.3985 43.6509 26.9788 42.4466 26.2457Z" fill="#FBBC04"/>
<path d="M13.573 13.9156C13.4868 14.2696 13.4414 14.6404 13.4414 15.0254V44.9768C13.4414 45.3611 13.4862 45.7332 13.5736 46.0859L28.4206 29.5696L13.573 13.9156Z" fill="#4285F4"/>
<path d="M28.0317 30L35.4608 21.7365L19.3229 11.3262C18.7363 10.9353 18.0518 10.7097 17.3192 10.7097C15.526 10.7097 14.0131 12.0673 13.5728 13.9101C13.5723 13.9119 13.5723 13.9131 13.5723 13.9147L28.0317 30Z" fill="#34A853"/>
</svg>
