<svg width="40" height="36" viewBox="0 0 40 36" fill="none" xmlns="http://www.w3.org/2000/svg">
<path fill-rule="evenodd" clip-rule="evenodd" d="M0.980067 14.3904C-0.319459 16.6182 -0.327149 19.3864 0.959982 21.6216L7.20663 32.4696C8.46569 34.6561 10.7727 36 13.2671 36H26.6415C28.3835 36 30.0347 35.3445 31.3013 34.2034L27.1228 29.9868C25.0124 31.3391 22.5232 32.1354 19.8336 32.1354C12.3002 32.1354 6.20706 25.9867 6.20706 18.3845C6.20706 10.7824 12.3002 4.63366 19.8336 4.63366C27.367 4.63366 33.4601 10.7824 33.4601 18.3845C33.4601 21.5221 32.4018 24.3879 30.6547 26.7008L34.0649 30.1332L39.0199 21.6386C40.3284 19.3954 40.3266 16.6057 39.015 14.3643L32.6505 3.48737C31.3853 1.32523 29.0918 0 26.615 0H13.3755C10.8952 0 8.59904 1.32887 7.33505 3.49577L0.980067 14.3904ZM19.8336 7.86916C25.6042 7.86916 30.2539 12.5613 30.2539 18.3845C30.2539 24.2078 25.6042 28.8999 19.8336 28.8999C14.063 28.8999 9.4133 24.2078 9.4133 18.3845C9.4133 12.5613 14.063 7.86916 19.8336 7.86916ZM25.9713 19.0283C26.4106 19.0283 26.7942 18.7351 26.949 18.2815C27.1039 17.8279 26.9897 17.329 26.6726 17.0251L21.1958 11.3234C20.5255 10.6255 19.4752 10.6255 18.8044 11.3234L13.3407 17.0117C13.0095 17.3295 12.8959 17.8284 13.0507 18.282C13.2055 18.7357 13.5892 19.0283 14.0284 19.0283H14.3863V24.6857C14.3863 24.9696 14.5959 25.2 14.8541 25.2H17.661V21.5998C17.661 20.1819 18.7103 19.0283 20.0001 19.0283C21.2899 19.0283 22.3392 20.1819 22.3392 21.5998V25.2H25.1461C25.4043 25.2 25.6139 24.9696 25.6139 24.6857V19.0283H25.9713Z" fill="white"/>
</svg>
