<svg width="20" height="18" viewBox="0 0 20 18" fill="none" xmlns="http://www.w3.org/2000/svg">
<path d="M9.99897 0C9.61912 0 9.2395 0.126486 8.93 0.380327L0.328587 7.43395C0.0097033 7.69536 -0.103801 8.15122 0.107954 8.50222C0.37765 8.94895 0.974468 9.03622 1.36255 8.71795L9.86464 1.74663C9.94258 1.68281 10.0554 1.68281 10.1333 1.74663L18.6354 8.71875C18.7913 8.8468 18.9802 8.90891 19.1687 8.90891C19.4584 8.90891 19.7458 8.76136 19.9046 8.47745C20.0985 8.13054 19.9843 7.69238 19.6751 7.43874L18.3358 6.34011V2.86364C18.3358 2.41159 17.9627 2.04545 17.5021 2.04545H16.6684C16.2078 2.04545 15.8347 2.41159 15.8347 2.86364V4.28906L11.0679 0.380327C10.7584 0.126486 10.3788 0 9.99897 0ZM9.99897 3.27273L1.66215 10.1066V15.9545C1.66215 17.084 2.59546 18 3.74636 18H16.2516C17.4025 18 18.3358 17.084 18.3358 15.9545V10.1066L9.99897 3.27273ZM8.33161 9.81818H11.6663C12.1269 9.81818 12.5 10.1843 12.5 10.6364V16.3636H7.49792V10.6364C7.49792 10.1843 7.871 9.81818 8.33161 9.81818Z" fill="white"/>
</svg>
  