<svg width="14" height="14" viewBox="0 0 14 14" fill="none" xmlns="http://www.w3.org/2000/svg">
<path d="M3.63957 0.78125C3.5647 0.78125 3.49276 0.813353 3.44512 0.874642L2.86957 1.62178H1.87401C1.73693 1.62178 1.62512 1.73365 1.62512 1.87082V2.867L0.878455 3.44291C0.817205 3.49058 0.777344 3.55965 0.777344 3.63748C0.777344 3.6404 0.777344 3.64234 0.777344 3.64526C0.777344 3.64818 0.777344 3.65013 0.777344 3.65304C0.777344 3.73087 0.817205 3.79994 0.878455 3.84761L1.62512 4.42353V5.4197C1.62512 5.51115 1.67665 5.58606 1.74957 5.62984C2.60123 5.24946 3.91373 4.78056 5.65401 4.50135V4.42353L6.40068 3.84761C6.46193 3.79994 6.50179 3.73087 6.50179 3.65304C6.50179 3.65013 6.50179 3.64818 6.50179 3.64526C6.50179 3.64234 6.50179 3.6404 6.50179 3.63748C6.50179 3.55965 6.46193 3.48961 6.40068 3.44291L5.65401 2.867V1.87082C5.65401 1.73365 5.5422 1.62178 5.40512 1.62178H4.40957L3.83401 0.874642C3.78637 0.813353 3.71443 0.78125 3.63957 0.78125ZM3.63957 2.51678C4.2579 2.51678 4.75957 3.01876 4.75957 3.63748C4.75957 4.2562 4.2579 4.75818 3.63957 4.75818C3.02123 4.75818 2.51957 4.2562 2.51957 3.63748C2.51957 3.01876 3.02123 2.51678 3.63957 2.51678ZM8.69512 4.75818C7.61498 4.7611 6.64471 4.85546 5.77845 4.99166C5.66471 5.00917 5.54609 5.0189 5.43623 5.03836C5.42845 5.03933 5.42068 5.04517 5.4129 5.04614C5.18151 5.08797 4.9579 5.13077 4.74401 5.17844C4.73623 5.18039 4.72846 5.18428 4.72068 5.18623C4.50776 5.23389 4.30165 5.28254 4.10623 5.3341C4.09845 5.33604 4.09068 5.33993 4.0829 5.34188C3.88845 5.39344 3.69984 5.44305 3.5229 5.49753C3.51804 5.49948 3.5122 5.50337 3.50734 5.50531C3.21179 5.59579 2.9454 5.69307 2.69845 5.78549C2.57887 5.83024 2.46415 5.87402 2.35623 5.91779C2.27554 5.95087 2.18998 5.97908 2.11512 6.01119C1.34804 6.34098 0.929983 6.61239 0.886233 6.64158C0.817205 6.6873 0.777344 6.76805 0.777344 6.85171V10.5407C0.798733 10.5057 0.812344 10.4843 0.816233 10.4784C2.62651 7.70099 5.55484 6.07637 7.27957 5.31075C7.74332 5.27475 8.2304 5.25627 8.74179 5.25627C8.75248 5.25627 8.76221 5.25627 8.7729 5.25627C8.48415 5.34966 3.70568 6.95386 1.23623 10.743C1.13804 10.8958 0.944566 11.2178 0.777344 11.5369V12.9767C0.777344 13.1148 0.889149 13.2257 1.02623 13.2257H3.29734C3.35568 13.0418 3.40137 12.9134 3.40623 12.8988C5.21943 8.2341 8.1604 6.10069 9.65957 5.27183C10.0455 5.28156 10.3839 5.29226 10.7173 5.31075C10.3955 5.43527 6.16151 7.18053 3.8729 13.07C3.8729 13.07 3.84957 13.1284 3.81845 13.2257H6.72734C6.77012 13.0428 6.80901 12.9193 6.8129 12.9066C8.39471 8.32749 10.413 6.161 11.3396 5.34966C11.6079 5.36912 11.848 5.38468 12.0551 5.40414C11.7751 5.60162 9.19387 7.53853 7.28734 13.0545C7.28734 13.0545 7.26693 13.1216 7.24068 13.2257H9.98623C10.0154 13.0554 10.0378 12.9436 10.0407 12.93C11.0139 8.70982 12.1523 6.27482 12.5762 5.45862C12.618 5.46348 12.69 5.47029 12.724 5.47418C12.724 5.47418 12.9058 5.5024 13.1051 5.53644C12.7765 6.15225 11.5418 8.64464 10.5307 13.0311C10.5307 13.0321 10.5132 13.107 10.4918 13.2257H12.9729C13.111 13.2257 13.2218 13.1148 13.2218 12.9767V5.25627C13.2218 5.13175 13.1265 5.02474 13.004 5.00722C13.0021 5.00722 12.8971 4.99847 12.8407 4.99166C12.828 4.98971 12.8154 4.98582 12.8018 4.98388C12.339 4.92745 10.7941 4.75818 8.74179 4.75818C8.72818 4.75818 8.71651 4.75818 8.7029 4.75818C8.69998 4.75818 8.69804 4.75818 8.69512 4.75818Z" fill="white"/>
</svg>
