<svg width="20" height="20" viewBox="0 0 20 20" fill="none" xmlns="http://www.w3.org/2000/svg">
<path d="M17.916 15.0026L12.3803 10.0026M7.6184 10.0026L2.08271 15.0026M1.66602 5.83594L8.47012 10.5988C9.02109 10.9845 9.29658 11.1773 9.59624 11.252C9.86093 11.318 10.1378 11.318 10.4025 11.252C10.7021 11.1773 10.9776 10.9845 11.5286 10.5988L18.3327 5.83594M5.66602 16.6693H14.3327C15.7328 16.6693 16.4329 16.6693 16.9677 16.3968C17.4381 16.1571 17.8205 15.7747 18.0602 15.3042C18.3327 14.7695 18.3327 14.0694 18.3327 12.6693V7.33594C18.3327 5.93581 18.3327 5.23574 18.0602 4.70096C17.8205 4.23056 17.4381 3.8481 16.9677 3.60842C16.4329 3.33594 15.7328 3.33594 14.3327 3.33594H5.66602C4.26588 3.33594 3.56582 3.33594 3.03104 3.60842C2.56063 3.8481 2.17818 4.23056 1.9385 4.70096C1.66602 5.23574 1.66602 5.93581 1.66602 7.33594V12.6693C1.66602 14.0694 1.66602 14.7695 1.9385 15.3042C2.17818 15.7747 2.56063 16.1571 3.03104 16.3968C3.56582 16.6693 4.26588 16.6693 5.66602 16.6693Z" stroke="white" stroke-width="1.66667" stroke-linecap="round" stroke-linejoin="round"/>
</svg>
