<svg width="18" height="18" viewBox="0 0 18 18" fill="none" xmlns="http://www.w3.org/2000/svg">
<path d="M5.95932 8.2C5.42171 8.2 4.90612 8.41071 4.52598 8.78579C4.14583 9.16086 3.93227 9.66957 3.93227 10.2C3.93227 10.7304 4.14583 11.2391 4.52598 11.6142C4.90612 11.9893 5.42171 12.2 5.95932 12.2C6.49693 12.2 7.01252 11.9893 7.39266 11.6142C7.77281 11.2391 7.98637 10.7304 7.98637 10.2C7.98637 9.66957 7.77281 9.16086 7.39266 8.78579C7.01252 8.41071 6.49693 8.2 5.95932 8.2ZM13.2567 8.2C12.7191 8.2 12.2035 8.41071 11.8234 8.78579C11.4432 9.16086 11.2297 9.66957 11.2297 10.2C11.2297 10.7304 11.4432 11.2391 11.8234 11.6142C12.2035 11.9893 12.7191 12.2 13.2567 12.2C13.7943 12.2 14.3099 11.9893 14.6901 11.6142C15.0702 11.2391 15.2838 10.7304 15.2838 10.2C15.2838 9.66957 15.0702 9.16086 14.6901 8.78579C14.3099 8.41071 13.7943 8.2 13.2567 8.2ZM5.95932 17C4.11024 17 2.71603 16.1404 2.71603 15V14.8C2.71603 14.028 3.35253 13.4 4.13497 13.4H7.78367C8.56611 13.4 9.20261 14.028 9.20261 14.8V15C9.20261 16.1404 7.8084 17 5.95932 17ZM13.2567 17C11.4076 17 10.0134 16.1404 10.0134 15V14.8C10.0134 14.028 10.6499 13.4 11.4324 13.4H15.0811C15.8635 13.4 16.5 14.028 16.5 14.8V15C16.5 16.1404 15.1058 17 13.2567 17ZM3.18347 10.6044C3.38374 10.5696 3.55807 10.7412 3.52239 10.9388C3.46442 11.2596 3.32293 11.7216 2.97996 12.06C2.63657 12.3988 2.16873 12.538 1.84359 12.5952C1.64332 12.63 1.46899 12.4584 1.50467 12.2608C1.56264 11.94 1.70413 11.478 2.0471 11.1396C2.39008 10.8008 2.85833 10.662 3.18347 10.6044ZM12.2432 1H6.97285C6.1904 1 5.55391 1.628 5.55391 2.4V6C5.55391 6.772 6.1904 7.4 6.97285 7.4H8.30989L9.14098 8.384C9.25653 8.5212 9.42761 8.6 9.60802 8.6C9.78842 8.6 9.95951 8.5212 10.075 8.384L10.9061 7.4H12.2432C13.0256 7.4 13.6621 6.772 13.6621 6V2.4C13.6621 1.628 13.0256 1 12.2432 1ZM11.0695 4.0056L9.95464 5.2056C9.83545 5.3344 9.67086 5.4 9.50666 5.4C9.36274 5.4 9.21842 5.35 9.10287 5.2484L8.1907 4.4484C7.93975 4.228 7.91664 3.8492 8.14002 3.6016C8.36341 3.354 8.74774 3.3316 8.99828 3.5516L9.46288 3.9592L10.1732 3.1948C10.4002 2.9504 10.7849 2.934 11.0322 3.158C11.2799 3.3816 11.2966 3.7612 11.0695 4.0056Z" fill="#033487"/>
</svg>
