<svg width="21" height="24" viewBox="0 0 21 24" fill="none" xmlns="http://www.w3.org/2000/svg">
<path d="M18.1108 0.960938C17.1827 0.960938 16.3802 1.48219 15.9508 2.23594C16.6933 2.39906 17.4452 2.68594 18.2158 3.10594C19.0989 3.58781 19.772 4.12219 20.2708 4.69594C20.4827 4.32469 20.6008 3.89906 20.6008 3.45094C20.6008 2.07469 19.487 0.960938 18.1108 0.960938ZM14.4508 3.03094C11.5202 3.10219 9.66204 5.74031 8.43579 7.48594C7.93704 8.19656 7.50954 8.81531 7.16079 9.07594C6.72016 9.39844 5.90454 9.47531 5.03079 9.57094C3.87766 9.69656 2.51079 9.85594 1.70079 10.6809C2.00829 10.6078 2.36829 10.5609 2.79579 10.5609C4.91641 10.5609 7.54704 10.7822 12.0508 13.3659C15.827 15.5166 18.9152 18.5691 19.6558 20.8659C19.937 19.9472 19.6914 18.8091 18.5608 16.9359C18.0508 16.0903 18.6733 14.5622 19.3258 12.9459C20.5258 9.97219 22.0108 6.27281 17.7508 3.94594C16.5152 3.27469 15.4277 3.00656 14.4508 3.03094ZM2.79579 11.5209C1.90516 11.5209 1.27516 11.7478 1.04079 12.1509L0.995787 12.1209C0.438913 14.2434 3.58891 17.4422 7.29579 19.7259C7.72891 21.3722 9.19891 22.5609 11.0008 22.5609C11.5445 22.5609 12.0508 22.4559 12.5158 22.2609C14.057 22.7766 15.3995 23.0409 16.4758 23.0409C17.4395 23.0409 18.1933 22.8122 18.6808 22.3809C18.7164 22.3416 18.7445 22.2909 18.7708 22.2459C18.9283 21.9722 18.8627 21.5822 18.7858 21.3009C18.3152 19.5816 15.6395 16.4991 11.5858 14.1909C7.28641 11.7234 4.88454 11.5209 2.79579 11.5209ZM11.0008 15.8409C12.6152 15.8409 13.8808 17.1066 13.8808 18.7209C13.8808 20.3353 12.6152 21.6009 11.0008 21.6009C9.38641 21.6009 8.12079 20.3353 8.12079 18.7209C8.12079 17.1066 9.38641 15.8409 11.0008 15.8409Z" fill="white"/>
</svg>
