<svg width="16" height="16" viewBox="0 0 16 16" fill="none" xmlns="http://www.w3.org/2000/svg">
<path d="M6.41742 1.00161C6.21825 1.0153 6.02618 1.11529 5.8936 1.28671L5.10581 2.3533L3.74212 2.41401C3.40877 2.41401 3.10597 2.68827 3.07566 3.02349L2.86318 4.33411L1.71197 5.0043C1.40893 5.18714 1.28724 5.52259 1.37815 5.85781L1.80253 7.13747L1.10588 8.29572C0.924059 8.56999 0.984194 8.96615 1.22663 9.20994L2.16653 10.1242L2.0452 11.4651C2.01489 11.8004 2.22679 12.1356 2.56013 12.227L3.83327 12.5924L4.3482 13.8418C4.46942 14.1465 4.83283 14.3295 5.16618 14.2685L6.4695 13.9941L7.49996 14.8476C7.62118 14.9391 7.80301 15 7.95453 15C8.10605 15 8.28787 14.9391 8.40909 14.8476L9.43955 13.9941L10.7423 14.2685C11.0756 14.3295 11.4093 14.1465 11.5609 13.8418L12.0758 12.5924L13.3483 12.227C13.6817 12.1356 13.8942 11.8308 13.8639 11.4651L13.8029 10.1242L14.773 9.17959C15.0154 8.9358 15.0761 8.56999 14.8943 8.29572L14.1669 7.16842L14.5913 5.88816C14.7125 5.55295 14.5605 5.21809 14.2575 5.03525L13.1062 4.33411L12.8938 2.99313C12.8332 2.65792 12.5607 2.41413 12.2273 2.38365L10.8938 2.32294L10.0758 1.28671C9.8637 1.01244 9.49993 0.921259 9.19688 1.07363L7.98471 1.65216L6.77254 1.07363C6.6589 1.01649 6.53692 0.993396 6.41742 1.00161ZM6.31798 4.63885C6.80285 4.63885 7.16674 4.91323 7.31826 5.37034C7.37887 5.55318 7.37863 5.64449 7.37863 6.31492C7.37863 6.98534 7.34856 7.10712 7.31826 7.25949C7.16674 7.68613 6.80285 7.99098 6.31798 7.99098C5.83311 7.99098 5.46922 7.7166 5.3177 7.25949C5.25709 7.07665 5.25733 6.98534 5.25733 6.31492C5.25733 5.64449 5.2874 5.52271 5.3177 5.37034C5.46922 4.94371 5.83311 4.63885 6.31798 4.63885ZM9.65145 4.63885H10.0758C10.1364 4.63885 10.1362 4.70003 10.1362 4.73051L6.49969 11.2515C6.46938 11.3124 6.43896 11.3431 6.37835 11.3431H5.95457C5.89396 11.3431 5.8633 11.2819 5.8936 11.2515L9.49993 4.73051C9.53023 4.66956 9.56053 4.63885 9.65145 4.63885ZM6.31798 5.27868C6.10585 5.27868 5.95421 5.40058 5.8936 5.58342C5.8633 5.67484 5.86342 5.76626 5.86342 6.34527C5.86342 6.92428 5.8936 6.98534 5.8936 7.07676C5.95421 7.29008 6.10585 7.3815 6.31798 7.3815C6.53011 7.3815 6.68175 7.25961 6.74236 7.07676C6.77266 6.98534 6.77254 6.8938 6.77254 6.34527C6.77254 5.76626 6.74236 5.67484 6.74236 5.58342C6.68175 5.3701 6.53011 5.27868 6.31798 5.27868ZM9.65145 7.99098C10.1363 7.99098 10.5002 8.26537 10.6517 8.72248C10.7123 8.90532 10.7121 8.99663 10.7121 9.66705C10.7121 10.3375 10.682 10.4593 10.6517 10.6116C10.5002 11.0383 10.1363 11.3431 9.65145 11.3431C9.16658 11.3431 8.80269 11.0687 8.65117 10.6116C8.59056 10.4288 8.5908 10.3375 8.5908 9.66705C8.5908 8.99663 8.62087 8.87485 8.65117 8.72248C8.80269 8.29584 9.16658 7.99098 9.65145 7.99098ZM9.65145 8.60046C9.43932 8.60046 9.28768 8.72236 9.22707 8.9052C9.19676 8.99663 9.19688 9.08805 9.19688 9.66705C9.19688 10.2461 9.22707 10.3071 9.22707 10.3985C9.28768 10.6119 9.43932 10.7033 9.65145 10.7033C9.86358 10.7033 10.0152 10.5814 10.0758 10.3985C10.1061 10.3071 10.106 10.2156 10.106 9.66705C10.106 9.08805 10.0758 8.99663 10.0758 8.9052C10.0152 8.72236 9.86358 8.60046 9.65145 8.60046Z" fill="white"/>
</svg>
