<svg width="16" height="13" viewBox="0 0 16 13" fill="none" xmlns="http://www.w3.org/2000/svg">
<path d="M1.60001 0.195312C1.07126 0.195312 0.64001 0.626562 0.64001 1.15531V5.57531C1.05501 5.21531 1.58001 4.92406 2.24001 4.69531V3.39531C2.24001 2.54406 3.69376 2.43531 4.96001 2.43531C6.22626 2.43531 7.68001 2.54406 7.68001 3.39531V4.03531C7.78751 4.03406 7.89001 4.03531 8.00001 4.03531C8.11001 4.03531 8.21251 4.03406 8.32001 4.03531V3.39531C8.32001 2.54406 9.77376 2.43531 11.04 2.43531C12.3063 2.43531 13.76 2.54406 13.76 3.39531V4.68531C14.4188 4.91281 14.9413 5.21031 15.36 5.57531V1.15531C15.36 0.626562 14.9288 0.195312 14.4 0.195312H1.60001ZM8.00001 4.67531C1.89001 4.67531 -0.00499014 5.80531 9.86315e-06 8.83531H16C16.005 5.78531 14.11 4.67531 8.00001 4.67531ZM9.86315e-06 9.47531V12.9953H2.24001V11.7153C2.24001 11.2553 2.42001 11.0753 2.88001 11.0753H13.12C13.58 11.0753 13.76 11.2553 13.76 11.7153V12.9953H16V9.47531H9.86315e-06Z" fill="white"/>
</svg>
