<svg width="16" height="16" viewBox="0 0 16 16" fill="none" xmlns="http://www.w3.org/2000/svg">
<path d="M8.33333 0.667969C8.26528 0.667977 8.19885 0.688818 8.14299 0.72769C8.08712 0.766563 8.04449 0.821604 8.02083 0.885417L4.10286 8.3138C4.03595 8.41984 4.0003 8.54259 4 8.66797C4 8.84478 4.07024 9.01435 4.19526 9.13937C4.32029 9.2644 4.48986 9.33464 4.66667 9.33464H8V15.0013C8 15.0897 8.03512 15.1745 8.09763 15.237C8.16014 15.2995 8.24493 15.3346 8.33333 15.3346C8.39468 15.3347 8.45486 15.3178 8.50724 15.2859C8.55962 15.254 8.60217 15.2082 8.63021 15.1536L12.5768 7.66927L12.5755 7.66797C12.6347 7.5668 12.6661 7.45183 12.6667 7.33464C12.6667 7.15782 12.5964 6.98826 12.4714 6.86323C12.3464 6.73821 12.1768 6.66797 12 6.66797H8.66667V1.0013C8.66667 0.912897 8.63155 0.828112 8.56904 0.7656C8.50652 0.703088 8.42174 0.667969 8.33333 0.667969Z" fill="white"/>
</svg>
