<svg width="16" height="16" viewBox="0 0 16 16" fill="none" xmlns="http://www.w3.org/2000/svg">
<path d="M8.00062 0.640625C7.94438 0.640625 7.88812 0.655625 7.83812 0.685625L3.20062 3.41188V4.15562L8.00062 1.33187L12.8006 4.15562V3.41188L8.16313 0.685625C8.11312 0.655625 8.05687 0.640625 8.00062 0.640625ZM8.00062 2.07438L4.16062 4.33313V8.64062C4.16062 8.81812 4.30313 8.96062 4.48062 8.96062H11.5206C11.6981 8.96062 11.8406 8.81812 11.8406 8.64062V4.33313L8.00062 2.07438ZM1.60062 5.12063C1.08687 5.12063 0.640625 5.44062 0.640625 6.08063V9.92062C0.640625 10.8806 0.939375 11.1494 1.28062 11.5206C1.28062 11.5206 3.19062 13.9719 3.52062 14.4006V15.0406C3.52062 15.2169 3.66438 15.3606 3.84062 15.3606H6.40062C6.57687 15.3606 6.72062 15.2169 6.72062 15.0406V13.7606C6.72062 12.5831 6.13562 11.7219 5.46062 11.0431L3.92687 9.40687C3.34063 8.82063 2.89062 9.20312 2.80313 9.29562C2.51438 9.59812 2.51313 10.0694 2.79813 10.3669L4.33187 11.9969C4.43438 12.1044 4.43438 12.2781 4.33187 12.3856C4.28187 12.4394 4.21438 12.4656 4.14687 12.4656C4.08063 12.4656 4.01313 12.4394 3.96187 12.3856L2.55687 10.8844C1.60062 9.92062 2.24062 8.96062 2.56062 8.96062V6.08063C2.56062 5.44062 2.11437 5.12063 1.60062 5.12063ZM14.4006 5.12063C13.8869 5.12063 13.4406 5.44062 13.4406 6.08063V8.96062C13.7606 8.96062 14.4006 9.92062 13.4444 10.8844L12.0394 12.3856C11.9881 12.4394 11.9206 12.4656 11.8544 12.4656C11.7869 12.4656 11.7194 12.4394 11.6694 12.3856C11.5669 12.2781 11.5669 12.1044 11.6694 11.9969L13.2044 10.3669C13.4881 10.0694 13.4869 9.59812 13.1994 9.29562C13.1106 9.20312 12.6606 8.82063 12.0744 9.40687L10.5406 11.0431C9.86562 11.7219 9.28062 12.5831 9.28062 13.7606V15.0406C9.28062 15.2169 9.42437 15.3606 9.60063 15.3606H12.1606C12.3369 15.3606 12.4806 15.2169 12.4806 15.0406V14.4006C12.8106 13.9719 14.7206 11.5206 14.7206 11.5206C15.0619 11.1494 15.3606 10.8806 15.3606 9.92062V6.08063C15.3606 5.44062 14.9144 5.12063 14.4006 5.12063Z" fill="white"/>
</svg>
