<svg width="18" height="18" viewBox="0 0 18 18" fill="none" xmlns="http://www.w3.org/2000/svg">
<path d="M9 1C8.41006 1 7.88558 1.24041 7.51953 1.61538H5.66797C5.19664 1.61538 4.87284 2.05544 5.04818 2.45913L5.66667 4.07692H12.3333L12.9518 2.45913C13.1272 2.05544 12.8034 1.61538 12.332 1.61538H10.4805C10.1144 1.24041 9.58994 1 9 1ZM5.66667 5.30769C5.66667 5.30769 1 9 1 13.3077C1 15.7692 3 17 4.33333 17H9H13.6667C15 17 17 15.7692 17 13.3077C17 9 12.3333 5.30769 12.3333 5.30769H5.66667ZM6.53516 7.76923H11.4688V8.56731H9.62109V8.64423C9.87043 8.79377 10.0517 9.04478 10.0977 9.3137H11.4688V10.1274H10.1341C10.0461 10.9293 9.28847 11.544 8.3138 11.6166H8.25391L10.3281 13.9231H8.74349L6.53125 11.4195V10.857H7.62109C8.29576 10.857 8.78982 10.5625 8.86849 10.1274H6.54036V9.3125H8.85937C8.78537 8.89465 8.3561 8.61779 7.77344 8.61779H6.53516V7.76923Z" fill="#033487"/>
</svg>
